<?xml version="1.0" standalone="no"?>
<!DOCTYPE svg PUBLIC "-//W3C//DTD SVG 20010904//EN"
 "http://www.w3.org/TR/2001/REC-SVG-20010904/DTD/svg10.dtd">
<svg version="1.0" xmlns="http://www.w3.org/2000/svg"
 width="512.000000pt" height="512.000000pt" viewBox="0 0 512.000000 512.000000"
 preserveAspectRatio="xMidYMid meet">

<g transform="translate(0.000000,512.000000) scale(0.100000,-0.100000)"
fill="#000000" stroke="none">
<path d="M686 5105 c-57 -20 -107 -65 -140 -126 -29 -53 -30 -56 -34 -245 -3
-106 -1 -213 2 -238 11 -69 55 -101 111 -80 39 15 45 54 45 276 0 229 3 239
57 267 16 8 519 11 1833 11 1958 0 1849 3 1878 -52 10 -18 13 -464 15 -2006
l2 -1984 24 -19 c52 -43 115 -11 126 63 3 24 5 921 3 1993 l-3 1950 -30 60
c-33 66 -91 117 -153 135 -25 7 -636 10 -1867 10 -1530 -1 -1836 -3 -1869 -15z"/>
<path d="M1065 4700 c-19 -21 -20 -38 -20 -350 0 -308 1 -329 19 -349 18 -20
29 -21 166 -21 142 0 150 1 201 28 131 68 168 241 75 348 -32 38 -33 39 -18
74 37 90 2 203 -80 258 -39 26 -48 27 -183 30 -134 3 -142 2 -160 -18z m267
-147 c22 -20 23 -61 1 -85 -12 -13 -31 -18 -75 -18 l-58 0 0 60 0 60 57 0 c38
0 62 -5 75 -17z m50 -280 c33 -33 30 -89 -6 -119 -23 -21 -38 -24 -102 -24
l-74 0 0 86 0 86 80 -4 c66 -3 83 -7 102 -25z"/>
<path d="M1670 4698 c-19 -21 -20 -34 -20 -348 0 -314 1 -327 20 -348 28 -30
80 -29 108 1 22 23 22 28 22 348 l0 326 -23 21 c-31 29 -80 29 -107 0z"/>
<path d="M1960 4700 c-19 -19 -20 -33 -20 -350 0 -317 1 -331 20 -350 27 -27
81 -26 106 1 17 19 20 42 24 208 l5 186 130 -189 c72 -104 143 -198 157 -209
38 -28 87 -14 110 32 15 30 16 65 11 340 -5 290 -7 307 -26 329 -27 30 -77 29
-105 -1 -20 -21 -22 -34 -24 -210 l-3 -188 -129 188 c-71 103 -138 198 -149
211 -26 28 -79 30 -107 2z"/>
<path d="M2843 4705 c-102 -31 -181 -104 -230 -212 -23 -48 -27 -72 -27 -143
0 -74 4 -93 31 -152 39 -82 100 -145 179 -184 53 -26 69 -29 159 -29 89 0 105
3 151 27 99 52 163 153 179 281 14 112 -16 137 -167 137 -101 0 -144 -16 -154
-55 -16 -65 27 -105 115 -105 l50 0 -12 -28 c-32 -73 -87 -112 -160 -112 -124
0 -219 95 -219 220 0 168 164 268 320 195 67 -31 87 -31 117 0 101 100 -145
219 -332 160z"/>
<path d="M3569 4697 c-72 -30 -110 -58 -154 -111 -62 -76 -80 -129 -80 -236 0
-82 4 -103 26 -150 39 -82 99 -144 177 -182 62 -31 74 -33 167 -33 89 0 106 3
157 28 110 54 184 153 209 280 30 149 -61 322 -208 393 -47 23 -73 29 -147 31
-78 3 -99 0 -147 -20z m214 -140 c86 -36 137 -113 137 -207 0 -126 -94 -220
-217 -220 -57 0 -117 26 -156 66 -47 47 -61 83 -61 154 0 71 14 107 61 154 59
60 163 83 236 53z"/>
<path d="M543 4216 l-28 -24 0 -1999 0 -1998 30 -55 c33 -60 96 -114 153 -130
20 -5 92 -10 158 -10 108 0 124 2 148 21 34 27 36 79 4 109 -19 18 -35 20
-141 20 -122 0 -149 7 -179 44 -17 20 -18 140 -18 1999 0 1485 -3 1984 -12
2000 -27 52 -71 60 -115 23z"/>
<path d="M3780 3811 c-68 -22 -129 -59 -179 -111 l-39 -40 -121 0 c-127 0
-172 -11 -185 -45 -8 -22 -8 -768 0 -790 16 -42 45 -45 429 -45 384 0 413 3
429 45 3 9 6 64 6 122 l0 105 63 61 c136 133 172 319 93 481 -90 184 -306 278
-496 217z m97 -199 c69 -91 82 -237 30 -345 -34 -69 -68 -101 -100 -94 -43 12
-102 63 -132 118 -25 45 -30 65 -30 124 0 60 4 78 31 125 34 60 113 123 148
118 11 -2 35 -22 53 -46z m-385 -210 c3 -86 8 -107 35 -163 73 -148 219 -239
385 -239 l58 0 0 -35 0 -35 -285 0 -285 0 0 285 0 285 44 0 44 0 4 -98z"/>
<path d="M1045 3648 c-45 -24 -45 -23 -45 -424 0 -210 3 -390 6 -399 16 -42
45 -45 429 -45 384 0 413 3 429 45 8 22 8 768 0 790 -17 42 -45 45 -431 45
-247 -1 -375 -4 -388 -12z m675 -433 l0 -285 -285 0 -285 0 0 285 0 285 285 0
285 0 0 -285z"/>
<path d="M2170 3647 c-49 -25 -50 -35 -48 -439 l3 -377 23 -23 23 -23 389 0
389 0 23 23 23 23 0 389 0 389 -23 23 -23 23 -377 3 c-290 1 -383 -1 -402 -11z
m670 -432 l0 -285 -280 0 -280 0 0 285 0 285 280 0 280 0 0 -285z"/>
<path d="M2625 2637 c-75 -25 -130 -60 -185 -118 l-56 -57 -107 -4 c-95 -3
-109 -5 -129 -26 l-23 -23 0 -389 0 -389 23 -23 23 -23 389 0 389 0 23 23 c21
21 23 32 26 161 l3 139 43 45 c196 211 127 541 -140 664 -48 22 -76 28 -149
30 -56 2 -105 -2 -130 -10z m-293 -424 c5 -109 35 -180 108 -257 89 -94 220
-145 342 -132 l58 6 0 -50 0 -50 -280 0 -280 0 0 285 0 285 24 0 c23 0 24 -3
28 -87z"/>
<path d="M1045 2448 c-45 -24 -45 -23 -45 -424 0 -210 3 -390 6 -399 16 -42
45 -45 429 -45 384 0 413 3 429 45 8 22 8 768 0 790 -17 42 -45 45 -431 45
-247 -1 -375 -4 -388 -12z m675 -433 l0 -285 -285 0 -285 0 0 285 0 285 285 0
285 0 0 -285z"/>
<path d="M3295 2448 c-45 -24 -45 -23 -45 -424 0 -210 3 -390 6 -399 16 -42
45 -45 429 -45 384 0 413 3 429 45 8 22 8 768 0 790 -17 42 -45 45 -431 45
-247 -1 -375 -4 -388 -12z m675 -433 l0 -285 -285 0 -285 0 0 285 0 285 285 0
285 0 0 -285z"/>
<path d="M1487 1406 c-73 -31 -132 -71 -166 -113 l-26 -33 -113 0 c-117 0
-163 -12 -176 -45 -8 -22 -8 -768 0 -790 16 -42 45 -45 429 -45 384 0 413 3
429 45 3 9 6 69 6 132 l0 116 51 50 c169 166 166 433 -6 596 -83 79 -148 105
-270 108 -88 3 -107 1 -158 -21z m151 -246 c23 -47 27 -68 27 -140 0 -72 -4
-94 -27 -140 -14 -30 -37 -68 -51 -85 l-24 -29 -43 19 c-80 36 -150 146 -150
235 0 87 64 190 142 229 l42 21 28 -27 c16 -15 41 -52 56 -83z m-416 -154 c3
-83 8 -102 41 -168 59 -121 157 -197 287 -224 44 -9 90 -12 121 -8 l49 7 0
-42 0 -41 -285 0 -285 0 0 285 0 285 34 0 34 0 4 -94z"/>
<path d="M2170 1247 c-49 -25 -50 -35 -48 -439 l3 -377 23 -23 23 -23 389 0
389 0 23 23 23 23 0 389 0 389 -23 23 -23 23 -377 3 c-290 1 -383 -1 -402 -11z
m670 -432 l0 -285 -280 0 -280 0 0 285 0 285 280 0 280 0 0 -285z"/>
<path d="M3295 1248 c-45 -24 -45 -23 -45 -424 0 -210 3 -390 6 -399 16 -42
45 -45 429 -45 384 0 413 3 429 45 8 22 8 768 0 790 -17 42 -45 45 -431 45
-247 -1 -375 -4 -388 -12z m675 -433 l0 -285 -285 0 -285 0 0 285 0 285 285 0
285 0 0 -285z"/>
<path d="M4479 691 l-29 -29 0 -222 c0 -244 -3 -259 -62 -279 -22 -8 -502 -11
-1582 -11 -1690 0 -1585 4 -1600 -55 -7 -29 15 -79 39 -89 30 -11 3137 -7
3177 4 62 18 120 69 153 135 l30 60 0 233 0 234 -28 24 c-37 32 -62 30 -98 -5z"/>
</g>
</svg>
